<svg xmlns="http://www.w3.org/2000/svg" viewBox="0 0 800 1120" preserveAspectRatio="xMidYMid slice">
  <!-- 03 · STORM — purple upper + smoky gray below, chaotic mist transition -->
  <defs>
    <linearGradient id="b3-purple" x1="0%" y1="0%" x2="0%" y2="100%">
      <stop offset="0%" stop-color="#3C1177"/>
      <stop offset="50%" stop-color="#5A2590"/>
      <stop offset="100%" stop-color="#2A0F4A"/>
    </linearGradient>
    <linearGradient id="b3-gray" x1="0%" y1="0%" x2="0%" y2="100%">
      <stop offset="0%" stop-color="#E7E3EC"/>
      <stop offset="100%" stop-color="#A39DB0"/>
    </linearGradient>
    <filter id="b3-paint" x="-5%" y="-5%" width="110%" height="110%">
      <feTurbulence type="fractalNoise" baseFrequency="0.018" numOctaves="3" seed="21" result="t"/>
      <feDisplacementMap in="SourceGraphic" in2="t" scale="24"/>
    </filter>
    <filter id="b3-paint-fine">
      <feTurbulence type="fractalNoise" baseFrequency="0.08" numOctaves="2" seed="7" result="t"/>
      <feDisplacementMap in="SourceGraphic" in2="t" scale="10"/>
    </filter>
    <filter id="b3-smoke-big">
      <feTurbulence type="fractalNoise" baseFrequency="0.008" numOctaves="4" seed="29"/>
      <feColorMatrix values="0 0 0 0 0.85 0 0 0 0 0.8 0 0 0 0 0.88 0 0 0 0.85 0"/>
      <feGaussianBlur stdDeviation="14"/>
    </filter>
    <filter id="b3-smoke-mid">
      <feTurbulence type="fractalNoise" baseFrequency="0.02" numOctaves="3" seed="41"/>
      <feColorMatrix values="0 0 0 0 0.45 0 0 0 0 0.3 0 0 0 0 0.6 0 0 0 0.5 0"/>
      <feGaussianBlur stdDeviation="6"/>
    </filter>
    <filter id="b3-grain">
      <feTurbulence type="fractalNoise" baseFrequency="0.9" numOctaves="2" seed="33"/>
      <feColorMatrix values="0 0 0 0 0.2 0 0 0 0 0.1 0 0 0 0 0.3 0 0 0 0.35 0"/>
      <feComposite in2="SourceGraphic" operator="in"/>
    </filter>
  </defs>

  <!-- 1. Gray base -->
  <rect width="800" height="1120" fill="url(#b3-gray)"/>

  <!-- 2. Purple upper half with ragged paint bottom -->
  <g filter="url(#b3-paint)">
    <path d="M0 0 L800 0 L800 620 C 720 630 640 590 560 640 C 480 690 400 590 320 650 C 240 710 160 580 80 640 C 40 660 0 620 0 600 Z"
          fill="url(#b3-purple)"/>
  </g>

  <!-- 3. MASSIVE smoke bloom at the divide — this is the signature NxLVL move -->
  <rect x="-80" y="380" width="960" height="500" filter="url(#b3-smoke-big)" opacity="0.75"/>
  <rect x="-40" y="460" width="880" height="300" filter="url(#b3-smoke-mid)" opacity="0.7"/>

  <!-- 4. Lightning-like purple lightning strikes reaching into the smoke -->
  <g filter="url(#b3-paint-fine)">
    <path d="M180 620 L 160 720 L 200 740 L 150 860" stroke="#3C1177" stroke-width="6" fill="none" stroke-linecap="round" opacity="0.85"/>
    <path d="M520 580 L 540 680 L 500 700 L 560 820" stroke="#2A0F4A" stroke-width="7" fill="none" stroke-linecap="round"/>
    <path d="M680 640 L 660 720 L 700 740 L 640 860" stroke="#3C1177" stroke-width="5" fill="none" stroke-linecap="round" opacity="0.75"/>
  </g>

  <!-- 5. Heavy purple splatter pouring down from the torn edge -->
  <g filter="url(#b3-paint)">
    <path d="M120 660 C 200 640 240 720 180 760 C 120 800 60 730 120 660 Z" fill="#3C1177"/>
    <path d="M580 680 C 660 660 700 730 640 760 C 580 790 520 740 580 680 Z" fill="#5A2590"/>
    <path d="M340 700 C 400 680 440 740 400 770 C 360 800 300 760 340 700 Z" fill="#2A0F4A" opacity="0.9"/>
  </g>
  <g filter="url(#b3-paint-fine)">
    <path d="M140 760 Q 144 820 140 880 Q 138 940 146 1000" stroke="#3C1177" stroke-width="11" fill="none" stroke-linecap="round"/>
    <path d="M300 740 Q 304 810 300 870 Q 298 920 306 970" stroke="#5A2590" stroke-width="9" fill="none" stroke-linecap="round" opacity="0.85"/>
    <path d="M420 770 Q 424 840 420 900 Q 418 960 426 1020" stroke="#2A0F4A" stroke-width="13" fill="none" stroke-linecap="round"/>
    <path d="M560 750 Q 564 820 560 880 Q 558 940 566 1000" stroke="#3C1177" stroke-width="10" fill="none" stroke-linecap="round" opacity="0.85"/>
    <path d="M720 760 Q 724 820 720 880 Q 718 940 726 1000" stroke="#5A2590" stroke-width="11" fill="none" stroke-linecap="round"/>
  </g>

  <!-- 6. Purple splatter dots on gray field -->
  <g fill="#3C1177">
    <circle cx="100" cy="900" r="5"/><circle cx="180" cy="1000" r="3"/>
    <circle cx="260" cy="940" r="4"/><circle cx="380" cy="980" r="2.5"/>
    <circle cx="500" cy="1020" r="3.5"/><circle cx="620" cy="960" r="3"/>
    <circle cx="700" cy="1010" r="2.5"/><circle cx="760" cy="960" r="3.5"/>
    <circle cx="40" cy="980" r="2"/>
  </g>

  <!-- 7. Gray spray speckles on purple -->
  <g fill="#E7E3EC" opacity="0.6">
    <circle cx="120" cy="200" r="5"/><circle cx="220" cy="140" r="3"/>
    <circle cx="360" cy="180" r="4"/><circle cx="460" cy="120" r="3"/>
    <circle cx="580" cy="200" r="5"/><circle cx="680" cy="100" r="3"/>
    <circle cx="720" cy="220" r="4"/><circle cx="80" cy="340" r="2.5"/>
    <circle cx="280" cy="360" r="3"/><circle cx="500" cy="320" r="2.5"/>
    <circle cx="640" cy="400" r="3"/><circle cx="160" cy="460" r="2"/>
    <circle cx="420" cy="480" r="2.5"/>
  </g>

  <!-- 8. Hand-drawn chevron clusters -->
  <g fill="none" stroke="#E7E3EC" stroke-width="4" stroke-linecap="round" opacity="0.85">
    <path d="M50 60 L80 90 L50 120"/>
    <path d="M80 60 L110 90 L80 120" opacity="0.7"/>
    <path d="M110 60 L140 90 L110 120" opacity="0.4"/>
  </g>
  <g fill="none" stroke="#3C1177" stroke-width="3.5" stroke-linecap="round">
    <path d="M710 1030 L740 1060 L710 1090"/>
    <path d="M740 1030 L770 1060 L740 1090" opacity="0.65"/>
  </g>

  <!-- 9. Halftone clusters -->
  <g fill="#E7E3EC" opacity="0.7">
    <circle cx="720" cy="60" r="1.3"/><circle cx="740" cy="60" r="2"/><circle cx="760" cy="60" r="2.5"/>
    <circle cx="700" cy="90" r="1.5"/><circle cx="720" cy="90" r="2"/><circle cx="740" cy="90" r="2.5"/><circle cx="760" cy="90" r="3"/>
    <circle cx="680" cy="120" r="1.3"/><circle cx="700" cy="120" r="2"/><circle cx="720" cy="120" r="2.5"/><circle cx="740" cy="120" r="3"/>
  </g>
  <g fill="#3C1177" opacity="0.75">
    <circle cx="60" cy="1060" r="3"/><circle cx="100" cy="1060" r="2.5"/><circle cx="140" cy="1060" r="2"/><circle cx="180" cy="1060" r="1.3"/>
    <circle cx="80" cy="1090" r="2.5"/><circle cx="120" cy="1090" r="2"/><circle cx="160" cy="1090" r="1.3"/>
  </g>

  <!-- 10. Plus-sparkles in smoke zone -->
  <g stroke="#5A2590" stroke-width="2.4" stroke-linecap="round" opacity="0.85">
    <path d="M200 540 L200 560 M190 550 L210 550"/>
    <path d="M360 600 L360 618 M350 609 L370 609"/>
    <path d="M540 560 L540 578 M530 569 L550 569"/>
    <path d="M680 620 L680 638 M670 629 L690 629"/>
    <path d="M260 720 L260 736 M252 728 L268 728"/>
    <path d="M540 720 L540 736 M532 728 L548 728"/>
  </g>

  <!-- 11. Grain -->
  <rect width="800" height="1120" filter="url(#b3-grain)" opacity="0.3"/>

  <!-- 12. Inner frame -->
  <rect x="24" y="24" width="752" height="1072" rx="18" ry="18" fill="none" stroke="#E7E3EC" stroke-width="1.4" opacity="0.7"/>
</svg>
