<svg xmlns="http://www.w3.org/2000/svg" viewBox="0 0 800 1120" preserveAspectRatio="xMidYMid slice">
  <!-- 01 · CRIMSON BLITZ — red paint poured from upper right, torn divide, black grit -->
  <defs>
    <linearGradient id="b1-cream" x1="0%" y1="0%" x2="0%" y2="100%">
      <stop offset="0%" stop-color="#F4EBD2"/>
      <stop offset="100%" stop-color="#CDC0A0"/>
    </linearGradient>
    <linearGradient id="b1-red" x1="100%" y1="0%" x2="0%" y2="100%">
      <stop offset="0%" stop-color="#F2253D"/>
      <stop offset="55%" stop-color="#B5142B"/>
      <stop offset="100%" stop-color="#6C0715"/>
    </linearGradient>
    <!-- Rough-edge filter applied to clean shapes to make them look painted -->
    <filter id="b1-paint" x="-5%" y="-5%" width="110%" height="110%">
      <feTurbulence type="fractalNoise" baseFrequency="0.025" numOctaves="3" seed="5" result="t"/>
      <feDisplacementMap in="SourceGraphic" in2="t" scale="22"/>
    </filter>
    <filter id="b1-paint-fine" x="-5%" y="-5%" width="110%" height="110%">
      <feTurbulence type="fractalNoise" baseFrequency="0.06" numOctaves="2" seed="11" result="t"/>
      <feDisplacementMap in="SourceGraphic" in2="t" scale="10"/>
    </filter>
    <filter id="b1-smoke">
      <feTurbulence type="fractalNoise" baseFrequency="0.012" numOctaves="3" seed="15"/>
      <feColorMatrix values="0 0 0 0 0.71 0 0 0 0 0.08 0 0 0 0 0.17 0 0 0 0.55 0"/>
      <feGaussianBlur stdDeviation="6"/>
    </filter>
    <filter id="b1-grain">
      <feTurbulence type="fractalNoise" baseFrequency="0.9" numOctaves="2" seed="22"/>
      <feColorMatrix values="0 0 0 0 0.1 0 0 0 0 0.04 0 0 0 0 0.06 0 0 0 0.45 0"/>
      <feComposite in2="SourceGraphic" operator="in"/>
    </filter>
  </defs>

  <!-- 1. Cream base -->
  <rect width="800" height="1120" fill="url(#b1-cream)"/>

  <!-- 2. Smoke atmosphere behind -->
  <rect x="-20" y="40" width="840" height="680" filter="url(#b1-smoke)" opacity="0.65"/>

  <!-- 3. Main crimson mass — drawn clean, then run through paint filter -->
  <g filter="url(#b1-paint)">
    <path d="M0 0 L800 0 L800 680 C 720 660 640 700 580 660 C 520 620 460 680 400 640 C 340 600 280 680 220 640 C 160 600 80 680 0 640 Z"
          fill="url(#b1-red)"/>
  </g>
  <!-- 4. Trailing crimson splatter clusters with heavy paint distortion -->
  <g filter="url(#b1-paint)">
    <path d="M600 720 C 680 700 720 780 680 820 C 640 860 560 820 600 720 Z" fill="#B5142B"/>
    <path d="M360 760 C 420 740 460 820 420 850 C 380 880 320 840 360 760 Z" fill="#A11026"/>
    <path d="M140 740 C 200 720 240 780 200 820 C 160 860 100 820 140 740 Z" fill="#B5142B" opacity="0.9"/>
  </g>
  <!-- 5. Drip tails falling from the crimson edge -->
  <g filter="url(#b1-paint-fine)">
    <path d="M140 640 Q 148 720 142 820 Q 138 860 148 900" stroke="#B5142B" stroke-width="12" fill="none" stroke-linecap="round" opacity="0.88"/>
    <path d="M320 640 Q 326 700 320 760" stroke="#8A0E20" stroke-width="9" fill="none" stroke-linecap="round" opacity="0.82"/>
    <path d="M420 670 Q 426 730 432 810 Q 430 860 418 900" stroke="#B5142B" stroke-width="14" fill="none" stroke-linecap="round"/>
    <path d="M560 660 Q 566 720 560 780" stroke="#6C0715" stroke-width="10" fill="none" stroke-linecap="round" opacity="0.9"/>
    <path d="M680 650 Q 684 720 680 790 Q 675 840 684 880" stroke="#B5142B" stroke-width="12" fill="none" stroke-linecap="round"/>
    <path d="M240 650 Q 244 710 240 770" stroke="#8A0E20" stroke-width="8" fill="none" stroke-linecap="round" opacity="0.75"/>
    <path d="M750 680 Q 754 740 750 810 Q 746 860 754 900" stroke="#B5142B" stroke-width="11" fill="none" stroke-linecap="round" opacity="0.85"/>
  </g>

  <!-- 6. Dense spray speckles across crimson area -->
  <g fill="#FFFFFF" opacity="0.55">
    <circle cx="140" cy="120" r="1.2"/><circle cx="180" cy="80" r="0.8"/><circle cx="220" cy="160" r="1.5"/>
    <circle cx="280" cy="120" r="1"/><circle cx="360" cy="80" r="1.4"/><circle cx="440" cy="140" r="1"/>
    <circle cx="520" cy="100" r="1.2"/><circle cx="600" cy="60" r="1"/><circle cx="680" cy="180" r="1.5"/>
    <circle cx="740" cy="80" r="1"/><circle cx="320" cy="260" r="1.2"/><circle cx="580" cy="320" r="1"/>
    <circle cx="460" cy="240" r="1"/><circle cx="100" cy="300" r="1.4"/><circle cx="720" cy="340" r="1"/>
    <circle cx="200" cy="440" r="1"/><circle cx="400" cy="440" r="1.2"/><circle cx="660" cy="500" r="1"/>
  </g>

  <!-- 7. Dark paint speckle clusters on cream (extra grit) -->
  <g fill="#6C0715">
    <circle cx="100" cy="860" r="4"/><circle cx="180" cy="900" r="2.5"/>
    <circle cx="260" cy="880" r="3"/><circle cx="340" cy="940" r="2"/>
    <circle cx="480" cy="900" r="3.5"/><circle cx="580" cy="940" r="2.5"/>
    <circle cx="660" cy="900" r="3"/><circle cx="740" cy="940" r="2"/>
    <circle cx="60" cy="960" r="2"/><circle cx="220" cy="1000" r="2.5"/>
    <circle cx="380" cy="1020" r="2"/><circle cx="520" cy="1000" r="2"/>
    <circle cx="620" cy="1040" r="2.5"/>
  </g>

  <!-- 8. Torn paper edge — hand-drawn jagged sawtooth path at the crimson base -->
  <path d="M0 700 L 30 680 L 70 708 L 110 678 L 150 712 L 200 686 L 240 716 L 290 684 L 330 710 L 380 680 L 420 710 L 470 688 L 510 715 L 560 685 L 610 713 L 650 682 L 700 711 L 750 686 L 800 710 L 800 720 L 0 720 Z"
        fill="url(#b1-red)" opacity="0.92" filter="url(#b1-paint-fine)"/>

  <!-- 9. Halftone dot pattern bottom-right -->
  <g fill="#6C0715" opacity="0.72">
    <circle cx="580" cy="940" r="3.5"/><circle cx="620" cy="940" r="3"/><circle cx="660" cy="940" r="2.5"/><circle cx="700" cy="940" r="2"/><circle cx="740" cy="940" r="1.3"/>
    <circle cx="600" cy="980" r="3"/><circle cx="640" cy="980" r="2.5"/><circle cx="680" cy="980" r="2"/><circle cx="720" cy="980" r="1.3"/>
    <circle cx="620" cy="1020" r="2.5"/><circle cx="660" cy="1020" r="2"/><circle cx="700" cy="1020" r="1.3"/>
    <circle cx="640" cy="1060" r="2"/><circle cx="680" cy="1060" r="1.3"/>
  </g>

  <!-- 10. Chevron stack top-right -->
  <g fill="none" stroke="#F4EBD2" stroke-width="4" stroke-linecap="round">
    <path d="M720 50 L750 80 L720 110"/>
    <path d="M690 50 L720 80 L690 110" opacity="0.65"/>
    <path d="M660 50 L690 80 L660 110" opacity="0.35"/>
  </g>
  <!-- 11. Chevron stack bottom-left (cream tone) -->
  <g fill="none" stroke="#6C0715" stroke-width="3.5" stroke-linecap="round" opacity="0.85">
    <path d="M50 1020 L80 1050 L50 1080"/>
    <path d="M80 1020 L110 1050 L80 1080" opacity="0.65"/>
    <path d="M110 1020 L140 1050 L110 1080" opacity="0.35"/>
  </g>

  <!-- 12. Plus-sign sparkles scattered in cream field -->
  <g stroke="#B5142B" stroke-width="2.4" stroke-linecap="round" opacity="0.85">
    <path d="M260 800 L260 822 M249 811 L271 811"/>
    <path d="M420 820 L420 842 M409 831 L431 831"/>
    <path d="M560 800 L560 820 M550 810 L570 810"/>
    <path d="M150 960 L150 978 M141 969 L159 969"/>
    <path d="M380 990 L380 1006 M372 998 L388 998"/>
    <path d="M740 820 L740 836 M732 828 L748 828"/>
  </g>

  <!-- 13. Grain overlay -->
  <rect width="800" height="1120" filter="url(#b1-grain)" opacity="0.4"/>

  <!-- 14. Inner cream rounded frame -->
  <rect x="24" y="24" width="752" height="1072" rx="18" ry="18" fill="none" stroke="#F4EBD2" stroke-width="1.4" opacity="0.7"/>
</svg>
