<svg xmlns="http://www.w3.org/2000/svg" viewBox="0 0 800 1120" preserveAspectRatio="xMidYMid slice">
  <!-- 04 · NIGHT WATCH — navy field with two massive diagonal yellow brush strikes + splatter -->
  <defs>
    <linearGradient id="b4-base" x1="0%" y1="0%" x2="100%" y2="100%">
      <stop offset="0%" stop-color="#101F4C"/>
      <stop offset="100%" stop-color="#060D2B"/>
    </linearGradient>
    <linearGradient id="b4-strike-a" x1="0%" y1="0%" x2="100%" y2="30%">
      <stop offset="0%" stop-color="transparent" stop-opacity="0"/>
      <stop offset="8%" stop-color="#FFDC3A"/>
      <stop offset="50%" stop-color="#F4C21C"/>
      <stop offset="92%" stop-color="#FFDC3A"/>
      <stop offset="100%" stop-color="transparent" stop-opacity="0"/>
    </linearGradient>
    <linearGradient id="b4-strike-b" x1="0%" y1="0%" x2="100%" y2="30%">
      <stop offset="0%" stop-color="transparent" stop-opacity="0"/>
      <stop offset="6%" stop-color="#F4C21C"/>
      <stop offset="55%" stop-color="#FFDC3A"/>
      <stop offset="95%" stop-color="#F4C21C"/>
      <stop offset="100%" stop-color="transparent" stop-opacity="0"/>
    </linearGradient>
    <filter id="b4-brush" x="-5%" y="-5%" width="110%" height="110%">
      <feTurbulence type="fractalNoise" baseFrequency="0.015" numOctaves="3" seed="37" result="t"/>
      <feDisplacementMap in="SourceGraphic" in2="t" scale="26"/>
    </filter>
    <filter id="b4-paint" x="-5%" y="-5%" width="110%" height="110%">
      <feTurbulence type="fractalNoise" baseFrequency="0.03" numOctaves="2" seed="51" result="t"/>
      <feDisplacementMap in="SourceGraphic" in2="t" scale="16"/>
    </filter>
    <filter id="b4-spray">
      <feTurbulence type="fractalNoise" baseFrequency="0.85" numOctaves="2" seed="61"/>
      <feColorMatrix values="0 0 0 0 1 0 0 0 0 0.82 0 0 0 0 0.22 0 0 0 0.35 0"/>
      <feComposite in2="SourceGraphic" operator="in"/>
    </filter>
  </defs>

  <!-- 1. Navy base -->
  <rect width="800" height="1120" fill="url(#b4-base)"/>

  <!-- 2. Upper diagonal brush strike — wide, tapered -->
  <g filter="url(#b4-brush)">
    <path d="M-40 120 L 280 40 L 860 200 L 860 320 L 320 220 L -40 300 Z"
          fill="url(#b4-strike-a)"/>
  </g>
  <path d="M-20 180 L 260 100 L 820 260 L 820 300 L 260 180 L -20 260 Z"
        fill="#FFDC3A" opacity="0.9" filter="url(#b4-paint)"/>

  <!-- 3. Lower diagonal brush strike — opposing direction -->
  <g filter="url(#b4-brush)">
    <path d="M860 840 L 540 780 L -40 960 L -40 1060 L 540 920 L 860 1000 Z"
          fill="url(#b4-strike-b)"/>
  </g>
  <path d="M840 880 L 540 820 L 0 980 L 0 1040 L 540 920 L 840 980 Z"
        fill="#F4C21C" opacity="0.85" filter="url(#b4-paint)"/>

  <!-- 4. Heavy paint splatter burst mid-right -->
  <g filter="url(#b4-paint)">
    <path d="M600 400 C 700 360 760 460 700 520 C 660 560 580 540 560 480 C 540 430 560 410 600 400 Z" fill="#FFDC3A"/>
    <path d="M560 540 C 600 520 640 550 610 580 C 580 600 540 580 560 540 Z" fill="#F4C21C" opacity="0.9"/>
  </g>
  <!-- Drips from the splatter -->
  <g filter="url(#b4-paint)">
    <path d="M620 520 Q 624 600 620 680 Q 618 740 626 800" stroke="#FFDC3A" stroke-width="14" fill="none" stroke-linecap="round"/>
    <path d="M720 500 Q 724 570 720 640" stroke="#F4C21C" stroke-width="10" fill="none" stroke-linecap="round" opacity="0.85"/>
    <path d="M560 560 Q 564 640 560 720" stroke="#F4C21C" stroke-width="8" fill="none" stroke-linecap="round" opacity="0.8"/>
  </g>

  <!-- 5. Cluster bottom-left -->
  <g filter="url(#b4-paint)">
    <path d="M140 620 C 200 600 240 660 200 700 C 160 730 100 680 140 620 Z" fill="#FFDC3A"/>
  </g>
  <g fill="#F4C21C">
    <circle cx="80" cy="660" r="6"/><circle cx="240" cy="740" r="4"/>
    <circle cx="180" cy="800" r="3.5"/><circle cx="120" cy="760" r="4"/>
    <circle cx="40" cy="720" r="5"/>
  </g>

  <!-- 6. Yellow speckle spray across navy -->
  <rect width="800" height="1120" filter="url(#b4-spray)" opacity="0.28"/>

  <!-- 7. Plus sparkles dense -->
  <g stroke="#FFDC3A" stroke-width="2.6" stroke-linecap="round" opacity="0.85">
    <path d="M120 440 L120 458 M110 449 L130 449"/>
    <path d="M320 660 L320 680 M310 670 L330 670"/>
    <path d="M540 760 L540 776 M532 768 L548 768"/>
    <path d="M280 420 L280 434 M273 427 L287 427"/>
    <path d="M720 720 L720 738 M711 729 L729 729"/>
    <path d="M420 860 L420 880 M411 870 L429 870"/>
    <path d="M60 520 L60 534 M53 527 L67 527"/>
    <path d="M200 900 L200 916 M192 908 L208 908"/>
    <path d="M640 940 L640 956 M632 948 L648 948"/>
  </g>

  <!-- 8. Chevrons top-right + bottom-left -->
  <g fill="none" stroke="#FFDC3A" stroke-width="4" stroke-linecap="round">
    <path d="M760 50 L730 80 L760 110"/>
    <path d="M760 110 L730 140 L760 170" opacity="0.7"/>
    <path d="M760 170 L730 200 L760 230" opacity="0.4"/>
  </g>
  <g fill="none" stroke="#F4C21C" stroke-width="4" stroke-linecap="round">
    <path d="M40 1020 L70 1050 L40 1080"/>
    <path d="M70 1020 L100 1050 L70 1080" opacity="0.7"/>
    <path d="M100 1020 L130 1050 L100 1080" opacity="0.4"/>
  </g>

  <!-- 9. Halftone bottom-right -->
  <g fill="#FFDC3A" opacity="0.8">
    <circle cx="540" cy="1030" r="3.5"/><circle cx="580" cy="1030" r="3"/><circle cx="620" cy="1030" r="2.5"/><circle cx="660" cy="1030" r="2"/><circle cx="700" cy="1030" r="1.3"/>
    <circle cx="560" cy="1060" r="3"/><circle cx="600" cy="1060" r="2.5"/><circle cx="640" cy="1060" r="2"/><circle cx="680" cy="1060" r="1.3"/>
    <circle cx="580" cy="1090" r="2.5"/><circle cx="620" cy="1090" r="2"/><circle cx="660" cy="1090" r="1.3"/>
  </g>

  <!-- 10. Inner frame -->
  <rect x="24" y="24" width="752" height="1072" rx="18" ry="18" fill="none" stroke="#FFDC3A" stroke-width="1.4" opacity="0.65"/>
</svg>
